<svg width="18" height="16" viewBox="0 0 18 16" fill="none" xmlns="http://www.w3.org/2000/svg">
<path d="M12.8895 9.73369C12.8895 10.3774 13.1063 10.6341 13.6732 10.6341C14.9367 10.6341 15.7413 9.27388 15.7413 7.01163C15.7413 3.55388 12.7589 1.89858 9.03534 1.89858C5.20478 1.89858 1.72071 4.06886 1.72071 8.17034C1.72071 12.0879 4.76847 14.2214 9.44896 14.2214C11.0382 14.2214 12.1049 14.0743 13.7367 13.6145L14.0868 14.846C12.4759 15.2882 10.7542 15.4161 9.42719 15.4161C3.28813 15.4161 0 12.5653 0 8.16958C0 3.73704 3.81061 0.720703 9.05711 0.720703C14.5213 0.720703 17.4158 3.47955 17.4158 6.86373C17.4158 9.73292 16.35 11.9216 12.9974 11.9216C11.4726 11.9216 10.4721 11.4066 10.3415 10.2655C9.94967 11.5346 8.90472 11.9216 7.48878 11.9216C5.59482 11.9216 4.00563 10.6886 4.00563 8.20636C4.00563 5.70501 5.3998 4.16006 7.90331 4.16006C9.23127 4.16006 10.0585 4.60147 10.4268 5.30038L11.059 4.32559H12.8877V9.73369H12.8895ZM10.2127 7.30591C10.2127 6.2951 9.31925 5.87131 8.57908 5.87131C7.7736 5.87131 6.88195 6.42231 6.88195 8.0416C6.88195 9.32906 7.55681 10.0464 8.57908 10.0464C9.29748 10.0464 10.2127 9.66012 10.2127 8.59337V7.30591Z" fill="#DBBAB5"/>
</svg>
