<svg width="14" height="11" viewBox="0 0 14 11" fill="none" xmlns="http://www.w3.org/2000/svg">
<path d="M6.89496 1.71429L7.23905 2.04067L7.58315 1.71429C8.1439 1.1824 9.08018 0.5 10.1174 0.5C11.079 0.5 11.8593 0.802798 12.3933 1.28584C12.9236 1.76557 13.2402 2.44828 13.2402 3.27707C13.2402 4.17883 12.8526 4.94085 12.2166 5.65924C11.5711 6.3883 10.7061 7.03288 9.80166 7.70441C9.80163 7.70443 9.80161 7.70445 9.80158 7.70447L9.79106 7.71228C8.95673 8.33148 8.04839 9.00562 7.34275 9.76147L7.70823 10.1027L7.3432 9.76099C7.33022 9.77486 7.29987 9.79277 7.25678 9.79277H7.22251C7.17903 9.79277 7.14835 9.77471 7.13536 9.76085L6.77046 10.1027L7.13625 9.76179C6.43759 9.01211 5.53761 8.34318 4.7103 7.72826L4.67852 7.70463L4.67831 7.70448C3.77358 7.03269 2.90874 6.38796 2.26344 5.65889C1.62762 4.94053 1.24023 4.17862 1.24023 3.27707C1.24023 2.44828 1.55683 1.76558 2.0872 1.28586C2.62125 0.802818 3.40176 0.5 4.36369 0.5C5.4 0.5 6.33383 1.18203 6.89496 1.71429Z" stroke="#9F8F89"/>
</svg>
