<svg width="349" height="71" viewBox="0 0 349 71" fill="none" xmlns="http://www.w3.org/2000/svg">
<path d="M41.8395 0.473694C39.3361 0.759644 36.9758 1.26006 36.5467 1.47452C36.189 1.76047 34.9016 2.11791 33.7572 2.33237C29.9664 2.90427 17.7357 9.40964 15.3754 12.0547C13.0866 14.6997 8.00839 24.4935 8.00839 26.3522C8.00839 28.9972 7.29315 29.5691 4.93284 28.9258C-1.14674 27.21 -12.233 29.4262 -16.0238 33.1435C-24.4637 41.3646 -39.4123 49.8716 -48.1383 51.3729C-50.4271 51.8018 -56.1491 50.658 -57.5796 49.5857C-58.724 48.6563 -59.5822 50.3005 -58.5094 51.5158C-56.9358 53.446 -52.5013 54.9472 -48.496 54.8757C-45.5634 54.8757 -42.8455 54.0894 -37.7673 51.8733C-26.6095 47.0121 -16.5245 41.6505 -11.5178 38.1477C-9.30053 36.5034 -7.51242 35.9315 -4.29382 35.6456C-1.57589 35.4311 0.140701 35.5741 0.4268 36.0745C0.712898 36.5034 1.49966 36.8609 2.14339 36.8609C4.78979 36.9324 5.93418 38.791 6.72095 44.1526C7.57925 50.0861 11.0124 57.5923 14.231 60.6662C18.2364 64.3836 25.4604 65.2414 28.3929 62.239C29.3942 61.3096 30.181 59.8799 30.181 59.165C30.181 58.3786 30.6817 57.3778 31.2539 56.8774C31.826 56.377 32.3267 55.2332 32.3267 54.3753C32.3267 51.8018 30.2525 46.6547 28.5359 45.0105C27.6776 44.1526 26.1756 42.4369 25.1743 41.2216C24.1729 40.0063 20.3821 37.1468 16.8059 34.9307C13.1582 32.7146 10.1541 30.7129 10.1541 30.3555C10.1541 29.0687 13.3012 21.3481 14.5171 19.5609C15.3039 18.5601 15.8761 17.3448 15.8761 16.9873C15.8761 15.5576 20.8113 11.9832 26.6763 9.12369C36.6897 4.19105 52.0675 2.04642 62.4385 3.97659C64.5843 4.40551 67.3022 4.90592 68.4466 5.12038C69.6625 5.33485 73.0242 6.12122 75.9566 6.97906C81.464 8.4803 82.3939 8.69477 83.2522 8.90923C83.5383 8.98072 85.5409 9.83857 87.7582 10.7679C89.9039 11.7687 91.692 12.4121 91.692 12.1977C91.692 12.0547 94.0523 12.984 96.9848 14.2708C99.9173 15.6291 103.351 16.9158 104.709 17.2018C105.997 17.4877 107.499 18.0596 108 18.4171C108.429 18.846 108.858 18.989 108.858 18.703C108.858 18.4886 111.004 19.4179 113.722 20.8477C119.801 24.1361 126.524 26.9956 136.037 30.427C140.186 31.9282 146.194 34.2873 149.484 35.7171C152.702 37.0753 155.492 38.2906 155.706 38.2906C155.921 38.2906 157.709 39.077 159.64 40.0778C163.145 41.865 168.581 43.7237 191.111 51.0869C197.191 53.0886 207.061 56.3055 212.926 58.3071C233.239 65.2414 241.25 67.3861 249.761 68.3154C253.123 68.6728 259.202 69.3162 263.351 69.7452C269.716 70.46 274.223 70.3171 279.801 69.4592C280.374 69.3162 283.449 69.0303 286.596 68.7443C289.743 68.4584 293.32 68.1009 294.464 67.958C304.62 66.5997 328.581 60.9522 334.017 58.5216C336.091 57.5923 338.523 56.8774 339.453 56.8774C341.026 56.8774 349.609 51.3014 348.966 50.7295C348.823 50.5865 346.82 51.3014 344.46 52.3022C342.171 53.303 338.094 54.5898 335.519 55.1617C332.873 55.7336 330.226 56.3055 329.654 56.52C329.082 56.8059 325.434 57.5208 321.572 58.3071C317.709 59.022 310.986 60.3803 306.623 61.3811C294.106 64.1691 286.739 65.027 273.364 65.027C263.923 65.027 259.417 64.741 255.125 63.8117C251.978 63.0968 246.328 61.8815 242.609 61.0237C238.889 60.2373 231.165 58.0212 225.443 56.1625C219.721 54.3038 211.424 51.5873 206.918 50.1576C202.483 48.6563 198.12 47.0836 197.262 46.5832C195.617 45.5109 189.752 43.5807 174.66 39.077C161.929 35.2881 148.482 30.6415 145.335 28.9258C143.976 28.2109 139.971 26.5667 136.395 25.3514C132.89 24.1361 128.241 22.4919 126.095 21.777C123.95 21.0621 121.875 20.1328 121.446 19.7753C121.017 19.4894 119.086 18.6315 117.083 17.9167C115.152 17.2018 113.221 16.3439 112.792 16.058C112.434 15.772 109.359 14.5567 105.997 13.3415C102.635 12.1977 96.8418 10.053 93.1225 8.69477C89.4032 7.26501 85.3979 5.97824 84.182 5.76378C83.0376 5.54931 80.4627 4.83443 78.46 4.26254C66.4439 0.545181 52.9258 -0.81308 41.8395 0.473694ZM13.9449 41.865C14.3741 42.2939 16.5198 43.7952 18.6655 45.2964C23.6007 48.6563 26.5332 52.3022 27.1054 55.7336C27.6061 58.9505 26.1041 60.3803 22.0987 60.4518C19.953 60.4518 18.8086 59.8799 16.2337 57.5208C12.2999 53.8749 10.3687 49.9431 9.72498 44.1526L9.22431 39.6489L11.1555 40.4353C12.2283 40.7927 13.4443 41.4361 13.9449 41.865Z" fill="#CD2637"/>
</svg>
