<svg width="16" height="15" viewBox="0 0 16 15" fill="none" xmlns="http://www.w3.org/2000/svg">
<path d="M7.92746 14.0625C6.08778 14.0625 4.32345 13.3711 3.02259 12.1404C1.72174 10.9097 0.990933 9.24048 0.990933 7.5C0.990933 5.75952 1.72174 4.09032 3.02259 2.85961C4.32345 1.6289 6.08778 0.9375 7.92746 0.9375C9.76714 0.9375 11.5315 1.6289 12.8323 2.85961C14.1332 4.09032 14.864 5.75952 14.864 7.5C14.864 9.24048 14.1332 10.9097 12.8323 12.1404C11.5315 13.3711 9.76714 14.0625 7.92746 14.0625ZM7.92746 15C10.03 15 12.0463 14.2098 13.533 12.8033C15.0197 11.3968 15.8549 9.48912 15.8549 7.5C15.8549 5.51088 15.0197 3.60322 13.533 2.1967C12.0463 0.790176 10.03 0 7.92746 0C5.82497 0 3.80859 0.790176 2.3219 2.1967C0.835212 3.60322 0 5.51088 0 7.5C0 9.48912 0.835212 11.3968 2.3219 12.8033C3.80859 14.2098 5.82497 15 7.92746 15Z" fill="#DBBAB5"/>
<path d="M8.84908 6.17625L6.57985 6.44531L6.49859 6.80156L6.94451 6.87937C7.23584 6.945 7.29332 7.04438 7.2299 7.31906L6.49859 10.5703C6.30635 11.4113 6.60264 11.8069 7.29926 11.8069C7.83932 11.8069 8.46658 11.5706 8.75098 11.2463L8.83818 10.8563C8.63999 11.0213 8.35064 11.0869 8.1584 11.0869C7.88589 11.0869 7.7868 10.9059 7.85716 10.5872L8.84908 6.17625ZM8.91845 4.21875C8.91845 4.46739 8.81404 4.70585 8.62821 4.88166C8.44237 5.05748 8.19033 5.15625 7.92751 5.15625C7.6647 5.15625 7.41265 5.05748 7.22682 4.88166C7.04098 4.70585 6.93658 4.46739 6.93658 4.21875C6.93658 3.97011 7.04098 3.73165 7.22682 3.55584C7.41265 3.38002 7.6647 3.28125 7.92751 3.28125C8.19033 3.28125 8.44237 3.38002 8.62821 3.55584C8.81404 3.73165 8.91845 3.97011 8.91845 4.21875Z" fill="#DBBAB5"/>
</svg>
