<svg width="18" height="16" viewBox="0 0 18 16" fill="none" xmlns="http://www.w3.org/2000/svg">
<path fill-rule="evenodd" clip-rule="evenodd" d="M5.11786 0.424946C6.04644 0.388875 6.34251 0.380859 8.70788 0.380859C11.0733 0.380859 11.3693 0.389543 12.2971 0.424946C13.2249 0.460348 13.8582 0.58526 14.4123 0.766281C14.9926 0.951309 15.519 1.24054 15.9544 1.61461C16.3977 1.98133 16.7397 2.42486 16.9582 2.91515C17.1735 3.38274 17.3208 3.91712 17.3635 4.69865C17.4063 5.48352 17.4158 5.73334 17.4158 7.72858C17.4158 9.72448 17.4055 9.97431 17.3635 10.7578C17.3216 11.5394 17.1735 12.0737 16.9582 12.5413C16.7397 13.0317 16.3972 13.476 15.9544 13.8432C15.519 14.2173 14.9926 14.5058 14.4123 14.6902C13.8582 14.8719 13.2249 14.9961 12.2987 15.0322C11.3693 15.0683 11.0733 15.0763 8.70788 15.0763C6.34251 15.0763 6.04644 15.0676 5.11786 15.0322C4.19166 14.9968 3.55836 14.8719 3.00422 14.6902C2.4231 14.5058 1.89659 14.2168 1.46134 13.8432C1.01833 13.4763 0.675506 13.0322 0.456768 12.542C0.242238 12.0744 0.0949951 11.54 0.0522473 10.7585C0.0094995 9.97364 0 9.72382 0 7.72858C0 5.73267 0.0102911 5.48285 0.0522473 4.69998C0.0942035 3.91712 0.242238 3.38274 0.456768 2.91515C0.675829 2.42492 1.01892 1.98087 1.46213 1.61394C1.89677 1.24021 2.42275 0.950938 3.00343 0.766281C3.55757 0.58526 4.19087 0.461016 5.11707 0.424946H5.11786ZM12.2267 1.74753C11.3084 1.71213 11.0329 1.70478 8.70788 1.70478C6.38288 1.70478 6.10739 1.71213 5.18911 1.74753C4.33969 1.78027 3.87897 1.89983 3.57182 2.0007C3.16571 2.13429 2.87519 2.2926 2.57041 2.54977C2.2815 2.78694 2.05916 3.07566 1.91969 3.39476C1.80016 3.65393 1.65846 4.04269 1.61967 4.75943C1.57771 5.53428 1.569 5.76674 1.569 7.72858C1.569 9.69042 1.57771 9.92287 1.61967 10.6977C1.65846 11.4145 1.80016 11.8032 1.91969 12.0624C2.05902 12.381 2.28147 12.6703 2.57041 12.9074C2.85144 13.1512 3.19421 13.3389 3.57182 13.4565C3.87897 13.5573 4.33969 13.6769 5.18911 13.7096C6.10739 13.745 6.38209 13.7524 8.70788 13.7524C11.0337 13.7524 11.3084 13.745 12.2267 13.7096C13.0761 13.6769 13.5368 13.5573 13.844 13.4565C14.2501 13.3229 14.5406 13.1646 14.8454 12.9074C15.1343 12.6703 15.3567 12.381 15.4961 12.0624C15.6156 11.8032 15.7573 11.4145 15.7961 10.6977C15.8381 9.92287 15.8468 9.69042 15.8468 7.72858C15.8468 5.76674 15.8381 5.53428 15.7961 4.75943C15.7573 4.04269 15.6156 3.65393 15.4961 3.39476C15.3378 3.05209 15.1501 2.80694 14.8454 2.54977C14.5643 2.30601 14.2221 2.1184 13.844 2.0007C13.5368 1.89983 13.0761 1.78027 12.2267 1.74753ZM7.59565 9.99368C8.21681 10.2119 8.90846 10.2413 9.55249 10.077C10.1965 9.91267 10.753 9.56478 11.1268 9.09274C11.5006 8.6207 11.6686 8.05379 11.6021 7.48884C11.5356 6.92389 11.2387 6.39595 10.7622 5.99518C10.4584 5.739 10.091 5.54284 9.6866 5.42082C9.28217 5.29881 8.85072 5.25397 8.42329 5.28955C7.99587 5.32512 7.5831 5.44022 7.21472 5.62655C6.84634 5.81288 6.5315 6.06582 6.29287 6.36715C6.05424 6.66847 5.89776 7.0107 5.83469 7.36918C5.77162 7.72766 5.80353 8.09349 5.92812 8.44031C6.05271 8.78714 6.26689 9.10635 6.55523 9.37495C6.84357 9.64355 7.19891 9.85486 7.59565 9.99368ZM5.54296 5.05802C5.95859 4.70731 6.452 4.42912 6.99504 4.23932C7.53808 4.04952 8.1201 3.95183 8.70788 3.95183C9.29566 3.95183 9.87769 4.04952 10.4207 4.23932C10.9638 4.42912 11.4572 4.70731 11.8728 5.05802C12.2884 5.40872 12.6181 5.82506 12.8431 6.28328C13.068 6.7415 13.1838 7.23261 13.1838 7.72858C13.1838 8.22455 13.068 8.71566 12.8431 9.17387C12.6181 9.63209 12.2884 10.0484 11.8728 10.3991C11.0334 11.1074 9.89496 11.5053 8.70788 11.5053C7.52081 11.5053 6.38235 11.1074 5.54296 10.3991C4.70357 9.69086 4.23201 8.73023 4.23201 7.72858C4.23201 6.72692 4.70357 5.76629 5.54296 5.05802ZM14.1764 4.51428C14.2794 4.4323 14.3619 4.33372 14.4189 4.22437C14.4759 4.11501 14.5064 3.99712 14.5085 3.87766C14.5105 3.7582 14.4842 3.6396 14.4309 3.5289C14.3777 3.41819 14.2987 3.31762 14.1986 3.23314C14.0985 3.14866 13.9793 3.08199 13.8481 3.03707C13.7169 2.99216 13.5763 2.96991 13.4347 2.97165C13.2932 2.97339 13.1534 2.99909 13.0238 3.04721C12.8943 3.09533 12.7774 3.16491 12.6803 3.25181C12.4913 3.42083 12.3879 3.64533 12.3919 3.87766C12.3959 4.10999 12.507 4.33185 12.7018 4.49614C12.8965 4.66044 13.1594 4.75424 13.4347 4.75763C13.7101 4.76101 13.9761 4.67372 14.1764 4.51428Z" fill="#DBBAB5"/>
</svg>
