<svg width="16" height="15" viewBox="0 0 16 15" fill="none" xmlns="http://www.w3.org/2000/svg">
<path d="M7.50316 2.79987C7.03096 2.79987 6.56936 2.93989 6.17674 3.20223C5.78412 3.46457 5.4781 3.83745 5.2974 4.27371C5.1167 4.70997 5.06942 5.19002 5.16154 5.65315C5.25366 6.11628 5.48105 6.54169 5.81495 6.87559C6.14884 7.20948 6.57425 7.43687 7.03738 7.52899C7.50051 7.62112 7.98056 7.57383 8.41682 7.39313C8.85308 7.21243 9.22595 6.90641 9.4883 6.51379C9.75064 6.12117 9.89066 5.65957 9.89066 5.18737C9.89066 4.55416 9.63912 3.94689 9.19138 3.49915C8.74364 3.05141 8.13637 2.79987 7.50316 2.79987ZM7.50316 6.74153C7.19578 6.74153 6.8953 6.65038 6.63971 6.47961C6.38413 6.30884 6.18493 6.06611 6.0673 5.78212C5.94967 5.49813 5.91889 5.18564 5.97886 4.88416C6.03883 4.58268 6.18685 4.30576 6.4042 4.0884C6.62155 3.87105 6.89848 3.72303 7.19996 3.66306C7.50144 3.60309 7.81393 3.63387 8.09792 3.7515C8.3819 3.86913 8.62463 4.06834 8.7954 4.32392C8.96618 4.5795 9.05733 4.87998 9.05733 5.18737C9.05623 5.59884 8.892 5.99307 8.60065 6.28364C8.30931 6.5742 7.91463 6.73737 7.50316 6.73737V6.74153Z" fill="#4A3536"/>
<path d="M12.4074 5.62094C12.1246 5.61308 11.8443 5.56683 11.574 5.48344V5.72094C11.574 7.41261 10.5657 8.91678 9.82818 10.0168L9.67818 10.2376C8.96152 11.3126 8.01152 12.5168 7.49902 13.1126C7.00735 12.5168 6.03652 11.3126 5.31985 10.2376L5.17818 10.0001C4.44068 8.90011 3.42818 7.39594 3.42818 5.70428C3.43071 5.00365 3.61402 4.31554 3.96038 3.70652C4.30674 3.09749 4.80442 2.58817 5.40528 2.22782C6.00614 1.86747 6.68983 1.6683 7.3902 1.64958C8.09058 1.63086 8.78393 1.79321 9.40318 2.12094C9.43634 1.83445 9.50927 1.55397 9.61985 1.28761C8.87161 0.926229 8.0437 0.761237 7.21409 0.808171C6.38448 0.855104 5.58047 1.11242 4.87776 1.55588C4.17505 1.99935 3.59678 2.61437 3.19739 3.34303C2.798 4.07169 2.59065 4.89002 2.59485 5.72094C2.59485 7.66678 3.68652 9.29594 4.48652 10.4834L4.63235 10.7001C5.4283 11.8537 6.28217 12.9662 7.19068 14.0334L7.50735 14.4043L7.82402 14.0334C8.73241 12.9661 9.58628 11.8536 10.3824 10.7001L10.5282 10.4793C11.324 9.29178 12.4157 7.66678 12.4157 5.72094C12.4115 5.68761 12.4074 5.65428 12.4074 5.62094Z" fill="#4A3536"/>
<path d="M12.5032 4.58335C13.6538 4.58335 14.5865 3.65061 14.5865 2.50002C14.5865 1.34943 13.6538 0.416687 12.5032 0.416687C11.3526 0.416687 10.4199 1.34943 10.4199 2.50002C10.4199 3.65061 11.3526 4.58335 12.5032 4.58335Z" fill="#4A3536"/>
</svg>
