<svg width="139" height="144" viewBox="0 0 139 144" fill="none" xmlns="http://www.w3.org/2000/svg">
<path d="M118.245 0.76181C117.654 1.78351 115.157 5.87033 113.787 8.11241C112.418 10.2977 110.753 11.6032 106.86 13.6183C105.517 14.3278 104.577 14.5832 102.832 14.7535C100.066 15.0089 96.7637 14.9238 93.7026 14.5264C92.4406 14.3562 90.1046 14.0724 88.4666 13.9021C86.05 13.6467 79.6326 12.6533 78.5317 12.3695C78.3974 12.3128 77.8335 12.1992 77.3234 12.1141C76.8132 12.0006 76.0345 11.8303 75.578 11.7451C75.1484 11.66 73.8595 11.5465 72.7586 11.4897C71.6577 11.433 70.2615 11.3194 69.6707 11.2343C69.08 11.1491 67.281 10.9505 65.6431 10.7802C64.032 10.6099 62.0181 10.3829 61.2126 10.2693C59.6015 10.0423 57.7756 10.241 56.5136 10.8086C55.5738 11.2059 55.6812 11.1775 54.4998 11.4613C52.2711 11.9722 49.1832 13.1642 47.1157 14.3278C45.8805 15.0089 44.35 15.7184 43.7056 15.9171C43.0611 16.0874 41.3427 16.655 39.8658 17.1659C38.389 17.6767 35.7576 18.4997 34.0123 18.9822C30.8975 19.8336 29.7698 20.2877 28.4541 21.1108C26.7893 22.1609 20.6135 24.8003 18.5191 25.3679C17.7673 25.5665 14.8942 26.7585 14.6257 26.9572C14.4914 27.0707 13.5785 27.468 12.6118 27.8086C10.0609 28.7452 5.36198 31.1292 5.36198 31.4981C5.36198 32.0657 7.05361 33.5415 8.42302 34.2227C9.79244 34.8754 9.81929 34.8754 12.7461 34.4497C15.3238 34.0807 16.8006 33.6267 19.8617 32.2644C20.2376 32.1225 20.6672 31.9522 20.8015 31.9238C21.419 31.7819 25.7152 30.3061 26.9772 29.7953C27.7291 29.5115 28.8568 29.1141 29.5281 28.9155C30.9512 28.4898 30.8975 28.5181 31.4077 28.3195C33.0725 27.6383 33.0993 27.8654 31.542 29.3979C28.0244 32.832 24.8291 35.0741 21.7681 36.3228C20.5866 36.8053 19.5126 37.3729 19.4052 37.5716C19.0561 38.196 15.3238 41.1192 13.5785 42.1125C12.6655 42.6517 11.1887 43.418 10.2489 43.8153C8.15451 44.7519 5.63049 46.4547 5.63049 46.9372C5.63049 47.1359 6.27492 47.8738 7.02676 48.5549L8.44987 49.8037L10.598 49.7753C13.1757 49.7185 16.1562 48.6968 20.1302 46.4831L22.681 45.0925L21.3385 46.398C20.6135 47.1075 19.2172 48.2711 18.2506 48.9522C15.0553 51.2795 15.109 51.2227 15.5655 52.1309C16.1025 53.1526 17.5256 53.8621 19.432 54.0891C20.882 54.231 21.0163 54.2027 22.7616 52.9823C25.393 51.1659 26.2254 50.9957 30.8707 51.3362C33.0188 51.5065 35.3817 51.8187 36.1067 52.0741C36.8585 52.3012 37.8251 52.4998 38.2548 52.4998C39.7047 52.5282 39.8121 52.7553 39.1677 54.7987C38.5233 56.9556 38.577 60.418 39.302 62.2912C40.0001 64.0508 41.4769 65.4698 42.9806 65.8388C44.1352 66.1226 44.4843 66.0942 46.3638 65.413C47.9749 64.8454 48.7268 64.3913 49.6934 63.398L50.9286 62.1209L51.2508 62.9439C52.0563 64.959 54.1239 64.8454 56.1914 62.6885C57.3997 61.4114 57.6145 61.2978 58.796 61.2978C59.521 61.2978 60.1923 61.1559 60.2728 61.014C60.6219 60.418 60.9172 60.787 61.1052 62.0357C61.2932 63.5115 61.9644 64.1359 63.5218 64.2778C64.7301 64.4197 65.6968 64.0224 66.6366 63.0858L67.3615 62.3479L67.6301 63.0291C68.4624 65.3847 71.3355 65.782 72.9466 63.7386C73.8058 62.6601 75.6586 61.9222 76.0345 62.5182C76.1419 62.6885 76.2493 63.1426 76.2493 63.4832C76.2493 63.9089 76.491 64.1643 77.1086 64.3913C78.3169 64.8454 79.552 64.5049 80.7603 63.398L81.8075 62.4615L82.5862 63.4832C83.0158 64.0508 83.3649 64.6468 83.3649 64.8171C83.3649 64.9873 82.8547 65.2144 82.2371 65.3279C80.6529 65.6117 79.5252 66.2929 78.9344 67.3429C78.2632 68.5065 78.2632 69.1593 78.9076 69.5283C80.0622 70.1526 80.8677 69.8688 82.2103 68.3363L83.4991 66.8605V67.7119C83.4991 68.1944 83.0964 69.8688 82.5862 71.4014C81.7807 73.8705 81.1631 76.0842 79.9816 80.7102C79.8205 81.3062 79.6057 81.7036 79.4715 81.5617C79.2029 81.2495 78.8002 78.5249 78.29 73.5583C77.8604 69.7553 77.2697 66.8888 76.7595 66.2077C76.5715 65.9807 76.1151 65.8388 75.7391 65.8955C75.1484 65.9807 75.0142 66.1793 74.8262 67.2578C74.5845 68.6201 72.6781 76.141 71.3892 80.7386C70.53 83.8037 69.5902 86.4999 69.2143 87.0391C69.0532 87.2378 69.1069 87.4365 69.2948 87.5784C69.6439 87.8054 70.6105 86.7553 70.6105 86.131C70.6105 85.9323 70.9596 84.9106 71.4161 83.8605C71.8457 82.8388 72.517 80.7386 72.9198 79.2345C73.2957 77.7303 73.9669 75.3179 74.3966 73.9273C74.8262 72.5082 75.3095 70.8054 75.4706 70.1242C75.6317 69.4431 75.8465 68.989 75.9808 69.1309C76.1151 69.2728 76.3567 70.8621 76.5178 72.6501C77.3502 81.5049 77.5113 82.2712 78.7465 84.7119C79.5252 86.1593 79.7668 86.4148 80.6261 86.6134C81.9149 86.8972 82.8279 86.4999 84.2241 85.0525C85.2445 84.0308 85.5398 83.8889 86.6407 83.8605C87.3657 83.8605 88.1713 83.7186 88.4398 83.5767C88.7888 83.4064 88.8963 83.4348 88.762 83.6618C88.4935 84.1443 89.3796 86.1877 90.0777 86.6702C90.937 87.2662 93.1387 87.2662 93.9174 86.6702C94.2665 86.4148 94.6424 85.9607 94.7498 85.6485C94.8572 85.3079 95.5017 84.8822 96.3878 84.5416C97.1933 84.2578 97.8646 84.0024 97.8914 84.0024C97.9183 84.0024 98.0257 84.3146 98.1062 84.6835C98.4016 85.9891 99.5562 87.0675 100.791 87.2662C101.785 87.4365 102.134 87.3513 103.047 86.6986C103.664 86.2729 104.228 85.6769 104.309 85.3931C104.443 84.9957 106.484 83.7186 107.021 83.7186C107.075 83.7186 107.128 84.1727 107.128 84.7119C107.128 85.4214 107.343 85.9607 107.826 86.4432C108.417 87.0959 108.659 87.1527 109.76 87.0108C110.458 86.8972 112.123 86.727 113.438 86.5851C114.781 86.4432 115.935 86.3013 116.043 86.3013C116.123 86.2729 116.58 85.9607 117.036 85.535C118.164 84.5416 120.232 84.2295 121.547 84.8538C122.111 85.1093 122.729 85.535 122.89 85.762C123.32 86.2729 122.89 86.727 120.017 88.7704C117.949 90.2462 116.311 91.8071 115.237 93.3397C114.083 94.9574 107.585 99.2145 103.691 100.889C102.832 101.258 100.818 102.336 99.2071 103.273C97.6229 104.209 96.2266 104.919 96.1461 104.862C96.0387 104.805 94.9378 104.692 93.7026 104.578C91.1249 104.38 89.6212 104.181 89.487 104.039C89.4333 103.982 89.836 103.727 90.3999 103.443C91.8499 102.705 97.9988 98.363 99.3951 97.0859C100.013 96.4899 101.758 95.3263 103.208 94.4749C104.685 93.6235 106.564 92.2896 107.37 91.4665C108.712 90.1894 108.82 89.9907 108.337 89.8205C108.041 89.7069 107.612 89.5367 107.37 89.3947C106.699 89.0258 103.396 89.565 101.758 90.3313C100.952 90.7286 99.5831 91.6936 98.7238 92.4882C96.2535 94.7871 93.1119 96.8589 87.7953 99.6969C86.238 100.52 84.7343 101.343 84.4389 101.513C83.1501 102.251 79.5252 103.869 78.478 104.124C76.0613 104.805 72.9198 104.068 63.8977 100.775C58.608 98.8171 56.621 98.2495 54.5535 98.0509C53.7748 97.9657 53.023 97.8522 52.9424 97.7954C52.7007 97.6535 50.0693 97.3981 45.1018 97.0575C43.1148 96.9156 39.9733 96.6602 38.1205 96.4899C36.2678 96.3196 32.7234 96.2061 30.1994 96.2629L25.6347 96.3764L23.2181 97.6251C21.9024 98.3063 20.4255 99.1577 19.9691 99.5267C19.5126 99.8956 19.0293 100.179 18.895 100.179C18.3311 100.179 14.1423 103.472 12.5044 105.174C12.3433 105.345 10.2489 107.587 7.85914 110.141C4.09997 114.143 2.46204 115.817 0.394494 117.719C-0.0888286 118.173 -0.142531 119.223 0.31394 119.705C0.797263 120.216 0.931519 120.159 1.95187 118.542C2.46204 117.747 4.8518 114.966 7.24157 112.383C9.63133 109.8 11.86 107.388 12.1822 106.991C13.4442 105.43 16.5321 102.876 19.3246 101.059C23.0838 98.6469 25.3125 97.6535 28.2124 97.1994C31.0855 96.717 32.3206 96.7453 39.5973 97.3697C41.5306 97.54 43.7593 97.7103 44.5648 97.7671C46.4444 97.8806 49.2906 98.1644 51.6804 98.4766C52.7276 98.6185 54.0433 98.7888 54.634 98.8739C56.9164 99.1577 58.5812 99.6969 68.5967 103.33C72.6244 104.777 75.2558 105.203 79.7937 105.118C91.0712 104.947 94.3739 105.004 95.7165 105.458C97.972 106.225 99.6099 107.104 99.771 107.644C100.066 108.637 99.6099 109.772 98.5896 110.482C94.3202 113.462 89.3259 114.143 78.6659 113.263C76.1956 113.036 72.3827 113.007 68.1939 113.121C62.6089 113.263 61.2395 113.405 59.0645 113.972C56.6747 114.597 54.4998 115.023 51.9489 115.42C51.3582 115.505 50.6869 115.732 50.4721 115.931C50.2573 116.129 49.4786 116.64 48.7268 117.066L47.3842 117.804L48.5925 117.634C49.2638 117.52 50.2841 117.208 50.9017 116.896C52.2711 116.215 52.3248 116.215 52.1637 116.952C52.0832 117.265 51.7341 117.69 51.385 117.832C50.3378 118.343 50.6601 118.684 51.7341 118.201C52.9693 117.662 53.4257 117.265 53.6942 116.47C53.9091 115.931 54.2044 115.817 56.0303 115.647C57.1849 115.533 59.333 115.164 60.8098 114.795C63.3876 114.171 63.8709 114.143 72.4901 114.228C77.4308 114.256 82.1834 114.427 83.0158 114.597C86.4259 115.278 94.5619 114.029 97.1396 112.411C98.1599 111.787 98.8312 111.56 99.7979 111.56C103.45 111.56 109.76 110.255 112.901 108.836C113.358 108.637 115.157 108.012 116.929 107.416C118.701 106.82 120.796 106.054 121.547 105.685C123.051 105.004 128.824 104.011 129.818 104.266C130.113 104.351 130.838 104.834 131.375 105.373C132.53 106.452 132.449 106.679 130.596 107.388C130.032 107.615 128.582 108.268 127.401 108.836C126.22 109.432 124.662 110.113 123.91 110.396C123.185 110.68 121.547 111.305 120.285 111.816C119.023 112.298 116.956 113.064 115.64 113.547C114.351 114.001 111.988 115.051 110.404 115.902C108.605 116.839 106.484 117.719 104.712 118.173C103.154 118.598 101.302 119.166 100.55 119.45C99.8247 119.705 99.0192 119.932 98.8044 119.904C98.0525 119.847 93.6221 121.749 91.9036 122.856C88.4129 125.098 79.8474 127.255 77.0817 126.602C75.7928 126.29 71.9531 125.836 67.1199 125.438C65.5625 125.296 63.0922 124.984 61.6154 124.757C60.1385 124.502 58.1516 124.161 57.1849 123.991C56.2183 123.849 54.4192 123.593 53.1572 123.452C49.9888 123.111 46.2027 122.629 45.2361 122.43C43.7324 122.146 37.4761 122.089 35.4891 122.345C33.2604 122.657 31.891 123.31 28.293 125.779C25.9837 127.34 25.6884 127.68 23.4597 131.001C22.144 132.959 20.8015 134.917 20.4792 135.343C20.157 135.769 19.62 136.677 19.2441 137.387C18.895 138.068 18.3043 139.174 17.9552 139.827C17.3645 140.962 17.3376 141.104 17.7136 141.814C18.2774 142.864 18.7339 142.949 18.9219 141.984C19.2172 140.366 21.9292 135.201 25.2856 129.809C26.655 127.624 28.3198 126.29 32.2132 124.303C33.5558 123.593 34.4956 123.338 36.2409 123.168C39.0066 122.912 42.3093 122.997 45.3704 123.395C46.6324 123.565 48.9953 123.849 50.6063 124.019C53.023 124.275 59.4404 125.268 60.5413 125.552C60.7024 125.609 61.2395 125.722 61.7496 125.807C62.2598 125.921 63.0653 126.091 63.495 126.176C63.9514 126.261 65.2134 126.375 66.3143 126.432C67.4152 126.488 68.8115 126.602 69.4022 126.687C69.993 126.772 71.8188 126.971 73.4299 127.141C75.0679 127.311 77.0548 127.538 77.8604 127.652C79.4715 127.879 81.2973 127.68 82.5594 127.113C83.4991 126.715 83.3917 126.744 84.5732 126.46C86.8019 125.949 89.8897 124.757 91.9573 123.593C93.1925 122.912 94.723 122.203 95.3674 122.004C96.0118 121.834 97.7303 121.266 99.2071 120.755C100.684 120.245 103.315 119.422 105.061 118.939C108.175 118.088 109.303 117.634 110.619 116.811C112.284 115.76 118.459 113.121 120.554 112.553C121.306 112.355 124.179 111.163 124.447 110.964C124.608 110.851 125.495 110.453 126.461 110.113C129.012 109.176 133.711 106.792 133.711 106.423C133.711 105.856 132.019 104.38 130.65 103.699C129.281 103.046 129.254 103.046 126.327 103.472C123.749 103.841 122.272 104.295 119.211 105.657C118.835 105.799 118.406 105.969 118.272 105.997C117.654 106.139 113.358 107.615 112.096 108.126C111.371 108.41 110.216 108.807 109.545 109.006C108.122 109.432 108.175 109.403 107.665 109.602C106.001 110.283 105.974 110.056 107.531 108.523C111.049 105.089 114.244 102.847 117.305 101.598C118.486 101.116 119.56 100.548 119.668 100.35C120.017 99.7253 123.749 96.8021 125.495 95.8088C126.407 95.2696 127.884 94.5033 128.824 94.1059C130.918 93.1694 133.442 91.4665 133.442 90.9841C133.442 90.7854 132.798 90.0475 132.046 89.3664L130.623 88.1176L128.475 88.146C125.897 88.2028 122.917 89.2245 118.943 91.4382L116.392 92.8288L117.735 91.5233C118.486 90.8138 119.856 89.6502 120.822 88.969C124.018 86.6418 123.964 86.6986 123.508 85.7904C122.971 84.7687 121.547 84.0592 119.614 83.8321C118.272 83.6902 118.003 83.747 116.848 84.5416C115.989 85.1093 115.184 85.4214 114.244 85.4782C113.036 85.5634 112.901 85.5066 112.821 84.9106C112.713 84.1159 112.042 84.1159 111.263 84.8822C110.941 85.1944 110.189 85.535 109.572 85.6201L108.471 85.7904V84.6835C108.498 83.9457 108.739 83.2361 109.223 82.555C112.337 78.1276 112.472 78.0425 114.62 77.6451L115.506 77.4748L115.372 78.5533C115.291 79.1209 115.157 79.8872 115.049 80.2278C114.781 81.136 115.533 81.1076 116.07 80.1994C117.627 77.7019 116.07 75.8004 113.197 76.6802C112.337 76.9356 111.451 77.7303 109.276 80.0575C106.887 82.6685 105.168 84.0308 104.819 83.6335C104.551 83.378 103.638 77.5032 103.638 76.1693C103.638 74.8354 103.557 74.6084 103.181 74.6935C102.886 74.7503 102.456 75.6017 101.919 77.191C101.194 79.3764 100.926 79.7737 99.2608 81.4765C98.2405 82.5266 97.0053 83.4916 96.4952 83.6618L95.5822 83.9456V82.9523C95.5822 82.4131 95.26 80.9941 94.8841 79.8304C94.3739 78.2411 94.2128 77.3046 94.2934 76.2829C94.3739 75.5166 94.3202 74.8354 94.2128 74.7503C93.9174 74.5516 93.273 75.7152 92.9239 77.0491C92.6554 78.1276 90.3731 81.2211 89.0305 82.2996C88.2518 82.9523 86.8019 83.4348 86.2917 83.2361C85.8621 83.0658 85.9426 82.4982 86.7482 80.8238C87.312 79.6885 87.4194 77.7587 86.9898 76.9072C86.8556 76.6234 86.3454 76.3112 85.9158 76.1977C84.6538 75.9139 83.8751 76.595 83.526 78.3263C83.0964 80.3697 83.1501 81.1643 83.7677 82.4415C84.063 83.0658 84.3047 83.6618 84.3047 83.7754C84.3047 84.0592 82.6668 85.3079 81.9955 85.535C81.7001 85.6201 81.2436 85.535 81.002 85.3363C80.5455 84.9957 80.5455 84.8255 81.0825 81.959C81.7001 78.6101 82.4251 75.3747 83.2038 72.792C83.4723 71.8555 83.8482 70.5216 84.0362 69.8404L84.3584 68.6201L85.2713 69.5566C85.7547 70.0675 86.3185 70.9189 86.4796 71.4298C86.6407 71.9406 86.8824 72.3096 87.0167 72.2244C87.5537 71.8555 87.2046 70.6635 86.1574 69.2728C84.8954 67.5984 84.9223 66.974 86.2648 66.974C87.0167 66.974 87.5268 67.2862 88.9768 68.7336L90.8027 70.4648L90.3731 69.3863C90.1314 68.8187 89.9435 68.2795 89.9435 68.2511C89.9435 68.2227 89.3796 67.7119 88.6814 67.1443C87.9296 66.5199 87.1509 66.1226 86.6676 66.1226C85.4324 66.1226 85.8084 65.6117 87.2046 65.3847C88.7083 65.1576 89.8092 64.6184 90.0509 63.994C90.8295 61.8371 88.5203 59.7937 86.8287 61.1559C86.3454 61.5249 86.3991 61.5533 87.4194 61.5817C88.7083 61.5817 89.2185 62.0641 89.0842 63.171C89.0037 63.994 88.7083 64.1643 86.4796 64.5332C85.4056 64.7035 85.325 64.6751 85.4593 64.1359C85.6741 63.2845 85.2445 63.1994 84.8954 63.994C84.4658 64.9873 84.1704 64.8738 83.7945 63.5967C83.4723 62.3763 83.6334 61.7236 84.7612 59.9072C85.5667 58.6301 85.5667 57.8922 84.7343 57.8922C84.251 57.8922 83.8751 58.2895 83.1232 59.595C82.0223 61.4681 79.4715 63.6534 78.5317 63.5115C78.102 63.4548 77.9678 63.171 77.9141 62.1777C77.8335 61.1276 77.9678 60.7019 78.8002 59.4247C79.3372 58.6017 80.4113 57.2962 81.2168 56.5015C82.3982 55.3095 82.8279 55.0541 83.6066 55.0541C84.6001 55.0541 84.6806 55.1676 84.5732 56.388C84.5195 57.2962 85.325 57.2394 85.6472 56.3028C85.8352 55.8204 85.8084 55.3947 85.6204 54.9689C85.1639 54.0608 84.8417 53.9189 83.4991 54.1175C80.5724 54.5432 78.0752 56.5015 77.028 59.2261C76.4373 60.7586 75.5243 61.5817 74.4503 61.5817C74.0475 61.5817 73.9669 61.3262 73.9401 59.9356C73.9132 59.0558 73.6447 57.4948 73.3225 56.5015C72.8929 55.1392 72.7855 54.3162 72.9198 53.2945C73.054 52.1876 73.0272 51.9322 72.6781 51.9322C72.1142 51.9322 71.4698 53.0958 71.255 54.4865C71.0402 55.9623 69.2143 58.9422 68.3282 59.3112C67.9791 59.4531 67.4421 60.0491 67.1467 60.6451C66.368 62.2628 65.1597 63.1142 63.7098 63.0291C62.3404 62.9439 62.6357 59.5382 64.1931 57.0975C65.294 55.423 65.4819 54.4865 64.8912 53.9756C64.3273 53.4648 63.3876 54.3446 62.6894 56.019C61.8839 57.9489 59.8432 60.1626 58.9034 60.1626C58.3395 60.1626 58.2321 60.0775 58.3932 59.6518C59.0108 58.0624 59.6015 56.1326 59.6015 55.6501C59.6015 54.9689 58.1516 53.6351 57.3997 53.6351C57.1044 53.6351 56.5136 54.0324 56.0572 54.4865C55.2785 55.3095 55.2516 55.4514 55.359 57.3245C55.4396 58.8003 55.6007 59.5099 56.0572 60.1626L56.6747 61.0424L55.6007 62.1777C54.7683 63.0574 54.3655 63.3129 53.7748 63.2277C53.1304 63.1426 53.023 63.0007 52.9424 62.0641C52.8619 61.1559 52.9961 60.8721 53.8017 60.0491C54.6072 59.2544 54.7683 58.9139 54.7683 57.9205C54.7683 57.0975 54.634 56.6718 54.3387 56.5583C53.5331 56.2461 52.6739 57.0975 51.6535 59.2828C50.4452 61.8087 48.8073 63.2845 46.4713 64.0224C43.7324 64.8738 41.7454 63.8521 41.0473 61.2695C40.6714 59.9072 40.564 55.0541 40.8593 53.8905C41.0742 53.1526 41.1279 53.1526 43.4371 53.0958C46.6055 53.0674 50.2036 51.9038 50.2036 50.9389C50.2036 50.3997 50.2573 50.3997 48.8342 51.1376C47.8944 51.6484 47.0888 51.7903 44.7259 51.8755L41.826 51.989L43.3834 49.8888C45.6657 46.8521 46.4713 45.9723 47.5722 45.3763C48.7536 44.7235 50.5526 44.6668 51.0091 45.2627C51.3313 45.6885 51.2776 47.7603 50.8749 49.0941C50.6601 49.7469 50.6869 49.7753 51.0897 49.4063C51.6535 48.9239 52.4322 46.2561 52.298 45.206C52.2443 44.6951 51.8952 44.2127 51.2776 43.7586C50.4989 43.191 50.123 43.1058 49.049 43.2477C46.9009 43.5031 45.9342 44.2127 43.3565 47.3913C42.0408 49.0374 40.7519 50.7118 40.5103 51.0808C40.0807 51.7619 40.0538 51.7619 38.3622 51.4497C37.4224 51.2511 36.053 50.9673 35.3011 50.797C34.5761 50.6267 32.079 50.4564 29.7966 50.428C25.7689 50.3713 25.581 50.3997 24.1579 51.1376C23.3523 51.5633 22.3857 52.1876 22.0098 52.4998C20.9894 53.3796 18.7608 53.6634 17.5256 53.0674C16.9617 52.812 16.3441 52.3863 16.183 52.1593C15.7534 51.6484 16.183 51.1943 19.0561 49.1509C21.1237 47.6751 22.7616 46.1142 23.8356 44.5816C24.9902 42.9639 31.4883 38.7068 35.3817 37.0323C36.2409 36.6634 38.2548 35.5849 39.8658 34.6484C41.4501 33.7118 42.8463 33.0023 42.9269 33.059C43.0343 33.1158 44.1352 33.2293 45.3704 33.3429C47.9481 33.5415 49.4517 33.7402 49.586 33.8821C49.6397 33.9389 49.2369 34.1943 48.6731 34.4781C47.3573 35.1592 41.8528 38.9906 40.1344 40.438C39.4094 41.0624 38.4964 41.7152 38.1205 41.9138C37.7446 42.0841 36.053 43.2761 34.3613 44.5532C32.6697 45.8304 30.5753 47.2494 29.7429 47.7035C28.1587 48.5549 27.7828 48.9239 28.0513 49.3496C28.1318 49.4915 28.6957 49.3212 29.3402 48.9239C30.5216 48.2143 31.4077 48.0724 31.8373 48.4981C32.2401 48.9239 35.677 48.3562 37.315 47.59C38.1205 47.1926 39.4899 46.2277 40.3492 45.433C42.8195 43.1342 45.9611 41.0624 51.2776 38.2243C52.835 37.4013 54.3387 36.5783 54.634 36.408C55.9229 35.6701 59.5478 34.0524 60.595 33.7969C63.0116 33.1158 66.1532 33.8537 75.1753 37.1459C80.465 39.1041 82.452 39.6718 84.5195 39.8704C85.2982 39.9556 86.05 40.0691 86.1306 40.1258C86.3722 40.2677 89.0037 40.5232 93.9711 40.8637C95.9581 41.0056 99.0997 41.2611 100.952 41.4314C102.805 41.6016 106.376 41.7152 108.874 41.6584L113.438 41.5449L115.855 40.2961C117.197 39.615 118.647 38.7636 119.104 38.3946C119.56 38.0257 120.044 37.7419 120.178 37.7419C120.742 37.7419 124.931 34.4497 126.569 32.7469C126.73 32.5766 128.824 30.3345 131.214 27.7802C134.973 23.7786 136.53 22.1892 138.678 20.1742C139.162 19.7485 139.108 19.3228 138.464 18.8971C138.115 18.67 137.551 19.1525 135.268 21.7068C133.765 23.438 131.429 25.9922 130.086 27.3829C128.77 28.8019 127.374 30.3345 126.998 30.7886C124.984 33.3145 120.715 36.5215 115.962 39.0474C114.11 40.0407 113.116 40.3813 110.861 40.7218C107.987 41.2043 106.752 41.1759 99.4756 40.5516C97.5692 40.3813 95.3137 40.211 94.5082 40.1542C92.6286 40.0407 89.7823 39.7569 87.3926 39.4447C86.3722 39.3028 85.0297 39.1325 84.4389 39.0474C82.1566 38.7636 80.4918 38.2243 70.4763 34.5916C66.4486 33.1442 63.8172 32.7185 59.2793 32.8036C48.0018 32.9739 44.6991 32.9171 43.3565 32.4631C41.101 31.6968 39.4631 30.817 39.302 30.2777C39.0066 29.2844 39.4631 28.1492 40.4834 27.4397C44.7528 24.4597 49.7471 23.7786 60.4071 24.6584C62.8774 24.8854 66.6903 24.9138 70.8791 24.8003C76.4641 24.6584 77.8335 24.5165 80.0085 23.9488C82.3982 23.3245 84.5732 22.8988 87.1241 22.5014C87.7148 22.4163 88.3861 22.1892 88.6009 21.9906C88.8157 21.7919 89.6212 21.2811 90.3462 20.8553L91.6888 20.1174L90.4805 20.2877C89.8092 20.4013 88.7888 20.7134 88.1713 21.0256C86.8019 21.7068 86.7482 21.7068 86.9093 20.9689C86.9898 20.6567 87.3389 20.231 87.6879 20.0891C88.7351 19.5782 88.4129 19.2376 87.3389 19.7201C86.1037 20.2594 85.6472 20.6567 85.3787 21.4513C85.1639 21.9906 84.8686 22.1041 83.0427 22.2744C81.8881 22.3879 79.74 22.7569 78.2632 23.1258C75.6854 23.7502 75.2021 23.7786 66.5829 23.6934C61.6422 23.665 56.8895 23.4948 56.0572 23.3245C52.647 22.6433 44.5111 23.8921 41.9334 25.5098C40.913 26.1342 40.2418 26.3612 39.2751 26.3612C35.6233 26.3612 29.3133 27.6667 26.1717 29.0857C25.7421 29.2844 23.9162 29.9088 22.144 30.5048C20.3718 31.1008 18.2774 31.8671 17.5256 32.236C16.0219 32.9171 10.2489 33.9105 9.25541 33.655C8.96005 33.5699 8.23506 33.0874 7.69804 32.5482C6.54343 31.4697 6.62399 31.2427 8.47672 30.5332C9.0406 30.3061 10.4906 29.6534 11.672 29.0857C12.8535 28.4898 14.4377 27.8086 15.1627 27.5248C15.9145 27.241 17.5256 26.6166 18.7876 26.1058C20.0496 25.6233 22.1172 24.857 23.4329 24.3745C24.7217 23.9205 27.0846 22.8704 28.6689 22.019C30.4679 21.0824 32.5892 20.2026 34.3613 19.7485C35.9187 19.3228 37.7983 18.7552 38.5233 18.4714C39.2751 18.2159 40.0538 17.9889 40.2686 18.0173C41.0205 18.074 45.4509 16.1725 47.1694 15.0657C50.6601 12.8236 59.2256 10.6667 61.9913 11.3194C63.2801 11.6316 67.1199 12.0857 71.9531 12.483C73.5105 12.6249 75.9808 12.9371 77.4576 13.1642C78.9344 13.4196 80.9214 13.7602 81.8881 13.9305C82.8547 14.0724 84.6538 14.3278 85.9158 14.4697C89.0842 14.8103 92.8702 15.2927 93.8369 15.4914C95.3406 15.7752 101.597 15.832 103.584 15.5765C105.813 15.2643 107.182 14.6116 110.78 12.1709C112.928 10.6667 113.438 10.1558 115.103 7.71507C119.399 1.44295 120.366 -0.146378 119.48 0.421234C119.346 0.506378 119.211 0.449615 119.211 0.307709C119.211 -0.259903 118.701 -0.00447083 118.245 0.76181ZM38.9261 27.6667C38.5501 28.1208 38.4159 30.4196 38.7381 31.1292C38.8992 31.4981 39.1677 31.7819 39.3557 31.7819C39.5705 31.7819 40.0807 32.009 40.5103 32.2928L41.289 32.8036L38.577 34.5065C37.0733 35.4714 34.6836 36.7769 33.2873 37.4297C31.891 38.0824 30.1188 39.0474 29.3402 39.5298C28.5883 40.0407 27.1921 40.9489 26.2523 41.5449C25.3393 42.1409 24.2653 42.9355 23.8893 43.3045C23.1107 44.0424 19.4589 46.3412 17.8747 47.0791C13.847 49.009 10.1684 49.8037 8.58413 49.0941C7.886 48.782 7.77859 48.6117 7.886 48.0441C8.0471 47.3913 7.69804 47.1359 7.37582 47.7035C7.24157 47.9022 6.9999 47.817 6.67769 47.5048C6.19437 47.0224 6.19437 46.994 7.02676 46.3696C7.51008 46.0006 8.02025 45.6885 8.20821 45.6885C8.39617 45.6885 8.58413 45.6033 8.63783 45.4614C8.69153 45.3479 9.73873 44.837 11.0007 44.2978C12.2628 43.7586 13.5785 43.1058 13.9544 42.822C14.3303 42.5666 15.3238 41.8854 16.1562 41.2895C17.0154 40.7218 18.2774 39.7001 18.9756 39.0474C20.4524 37.6567 21.3653 37.0891 23.1375 36.4931C23.8356 36.2661 24.5606 35.9255 24.7486 35.7552C24.9365 35.5849 26.3597 34.5632 27.917 33.5131C29.6624 32.2928 31.4077 30.817 32.4818 29.625C33.4215 28.5465 34.4956 27.5816 34.8715 27.4964C36.1335 27.2126 39.1946 27.3261 38.9261 27.6667ZM58.0979 33.7686C57.9367 33.9389 56.0035 34.9322 53.8017 35.9823C51.5998 37.0323 48.861 38.5365 47.6796 39.3028C43.4102 42.1693 41.7186 43.418 40.1344 44.837C37.7714 46.9372 36.2678 47.6467 33.5558 47.8454L31.2734 48.0441L31.9984 47.221C32.4012 46.7669 33.1799 46.1425 33.7438 45.8304C34.6567 45.3195 37.0733 43.7018 38.9261 42.3679C39.302 42.1125 40.1075 41.4597 40.7251 40.9489C41.3427 40.438 41.9602 40.0123 42.1214 40.0123C42.2556 40.0123 42.4973 39.842 42.6047 39.6434C42.8732 39.2177 46.0953 36.7202 47.787 35.6701C48.4582 35.2444 49.3175 34.62 49.6934 34.2794C50.3647 33.6834 50.6869 33.6267 54.3924 33.5415C57.2386 33.4848 58.3127 33.5415 58.0979 33.7686ZM58.4738 54.827C59.0645 55.4514 58.7423 57.58 57.8025 59.1693C57.4534 59.7369 57.4534 59.7369 56.9433 59.0842C56.1646 58.1476 55.9498 56.0758 56.4868 55.196C56.9701 54.4297 57.9367 54.2594 58.4738 54.827ZM72.517 58.8287C72.6512 59.4247 72.7586 60.3329 72.7049 60.8154C72.6244 61.5817 72.517 61.7236 71.98 61.6384C71.2818 61.5533 69.5365 60.3045 69.5365 59.8788C69.5365 59.7369 69.993 58.9706 70.5568 58.176C71.4429 56.8988 71.5772 56.8137 71.8994 57.2394C72.0874 57.5232 72.3559 58.2327 72.517 58.8287ZM53.4257 59.4247L52.835 60.0207L53.3183 59.0274C53.5868 58.4314 53.8285 58.176 53.9091 58.4314C53.9628 58.6301 53.7479 59.0842 53.4257 59.4247ZM71.4161 62.1493C72.0068 62.3195 72.4901 62.5466 72.4901 62.6317C72.4901 62.7453 72.2216 63.1142 71.8994 63.4832C70.6642 64.8738 68.1939 63.8237 68.1939 61.9222C68.1939 60.6167 68.6773 60.3613 69.5902 61.1559C70.0198 61.5533 70.8522 61.979 71.4161 62.1493ZM82.8816 66.3212C83.0427 66.8037 80.7066 69.2444 80.089 69.2444C79.7937 69.2444 79.3909 69.0458 79.2029 68.8187C78.9613 68.5065 78.9881 68.2511 79.4715 67.5416C79.7937 67.0875 80.0622 66.6902 80.089 66.6902C80.1159 66.6902 80.6261 66.4915 81.2168 66.2645C82.3714 65.8388 82.7473 65.8388 82.8816 66.3212ZM86.2111 77.191C86.9898 77.6451 86.8824 79.4899 85.9963 81.1927C85.5667 81.959 85.1639 82.5834 85.0565 82.5834C84.5463 82.5834 84.251 81.2211 84.3852 79.3764C84.5195 77.0491 84.976 76.5099 86.2111 77.191ZM103.101 82.6118V83.9173L102.134 83.747C101.489 83.6335 100.952 83.2929 100.603 82.8104L100.04 82.0158L100.738 81.2495C101.114 80.7954 101.651 80.0007 101.892 79.4615L102.376 78.4682L102.725 79.8872C102.913 80.6819 103.074 81.9022 103.101 82.6118ZM93.7026 80.6819C94.0517 82.3279 93.9711 84.1727 93.5684 84.1159C93.4341 84.0876 92.8971 83.974 92.3869 83.8605C91.1786 83.6051 91.3666 84.3146 92.5749 84.7119C93.6221 85.0241 93.6221 85.6769 92.5749 86.2161C91.5008 86.7553 90.2925 86.0458 90.0509 84.7403C89.836 83.5199 90.1046 82.555 90.6147 82.7537C90.8832 82.8672 90.937 82.7537 90.8295 82.3279C90.749 81.9306 91.0443 81.3346 91.8499 80.3413C92.4943 79.575 93.0851 78.979 93.1925 79.0642C93.2999 79.1209 93.5415 79.8588 93.7026 80.6819ZM99.959 83.0091C100.066 83.2361 100.765 83.747 101.543 84.1727L102.939 84.9106L102.214 85.5917C101.785 85.9607 101.275 86.2729 101.06 86.2729C100.469 86.2729 99.0729 84.7119 99.0729 84.0592C99.0729 82.8104 99.6636 82.1293 99.959 83.0091ZM130.623 88.8839C131.187 89.1393 131.294 89.3664 131.16 89.8772C131.026 90.53 131.375 90.7854 131.697 90.2178C131.831 90.0191 132.073 90.1043 132.395 90.4165C132.879 90.8989 132.879 90.9273 132.046 91.5517C131.563 91.9206 131.053 92.2328 130.865 92.2328C130.677 92.2328 130.489 92.318 130.435 92.4315C130.408 92.5734 129.334 93.0842 128.072 93.6235C126.81 94.1627 125.495 94.8155 125.119 95.0993C124.743 95.3547 123.749 96.0358 122.917 96.6318C122.058 97.1994 120.796 98.2211 120.097 98.8739C118.621 100.265 117.708 100.832 115.935 101.428C115.237 101.655 114.512 101.996 114.324 102.166C114.136 102.336 112.686 103.358 111.129 104.437C109.303 105.685 107.638 107.104 106.511 108.41L104.712 110.453L102.268 110.538C100.415 110.624 99.9053 110.567 100.12 110.311C100.496 109.8 100.657 107.53 100.335 106.792C100.174 106.423 99.9053 106.139 99.7173 106.139C99.5025 106.139 98.9923 105.912 98.5627 105.629L97.784 105.118L100.496 103.415C102 102.45 104.389 101.144 105.786 100.492C107.182 99.8388 108.954 98.8739 109.733 98.3914C110.485 97.8806 111.881 96.9724 112.821 96.3764C113.734 95.7804 114.808 94.9857 115.184 94.6168C115.882 93.964 119.426 91.6936 120.903 90.9841C125.253 88.8555 128.931 88.0609 130.623 88.8839ZM106.967 91.1544C106.269 91.9774 104.926 92.9423 102.725 94.1627C100.926 95.156 98.9923 96.4048 98.3747 96.944C97.7303 97.4832 97.1127 97.909 96.9516 97.909C96.8174 97.909 96.5757 98.0792 96.4683 98.2779C96.1998 98.732 92.9508 101.229 91.286 102.251C90.6147 102.649 89.8092 103.245 89.487 103.585C88.95 104.096 88.4398 104.181 84.788 104.323C81.8612 104.437 80.7603 104.38 80.9751 104.153C81.1362 103.982 83.0695 102.989 85.2713 101.939C87.4731 100.889 90.212 99.3848 91.3934 98.6185C95.6628 95.752 97.3544 94.5033 98.7775 93.2261C101.516 90.7286 103.127 90.0475 106.43 89.9907L107.987 89.9624L106.967 91.1544Z" fill="#DBBAB5"/>
<path d="M52.8578 142.036C52.1329 142.576 52.0523 143.541 52.6699 143.796C52.9115 143.881 53.5023 143.739 54.0393 143.484C54.7374 143.143 54.9522 142.859 54.8717 142.377C54.7643 141.582 53.6902 141.412 52.8578 142.036Z" fill="#DBBAB5"/>
</svg>
