<svg width="16" height="15" viewBox="0 0 16 15" fill="none" xmlns="http://www.w3.org/2000/svg">
<g clip-path="url(#clip0)">
<path d="M7.92738 2.7998C7.42827 2.7998 6.94036 2.93983 6.52536 3.20217C6.11036 3.46451 5.78691 3.83739 5.59591 4.27365C5.4049 4.70991 5.35493 5.18995 5.4523 5.65308C5.54967 6.11621 5.79002 6.54163 6.14295 6.87552C6.49588 7.20942 6.94553 7.43681 7.43506 7.52893C7.92458 7.62105 8.43199 7.57377 8.89311 7.39307C9.35424 7.21237 9.74837 6.90635 10.0257 6.51373C10.303 6.12111 10.451 5.65951 10.451 5.18731C10.451 4.5541 10.1851 3.94683 9.71182 3.49909C9.23856 3.05134 8.59668 2.7998 7.92738 2.7998ZM7.92738 6.74147C7.60248 6.74147 7.28487 6.65032 7.01472 6.47955C6.74458 6.30878 6.53402 6.06605 6.40969 5.78206C6.28535 5.49807 6.25282 5.18558 6.3162 4.8841C6.37959 4.58262 6.53605 4.3057 6.76579 4.08834C6.99553 3.87099 7.28824 3.72297 7.6069 3.663C7.92556 3.60303 8.25586 3.63381 8.55604 3.75144C8.85621 3.86907 9.11277 4.06828 9.29328 4.32386C9.47378 4.57944 9.57013 4.87992 9.57013 5.18731C9.56896 5.59877 9.39538 5.99301 9.08743 6.28358C8.77948 6.57414 8.36231 6.73731 7.92738 6.73731V6.74147Z" fill="#DBBAB5"/>
<path d="M13.1111 5.62088C12.8122 5.61302 12.5159 5.56677 12.2303 5.48338V5.72088C12.2303 7.41255 11.1645 8.91672 10.3849 10.0167L10.2264 10.2375C9.46886 11.3125 8.46471 12.5167 7.923 13.1125C7.40331 12.5167 6.37715 11.3125 5.61964 10.2375L5.46989 10C4.69036 8.90005 3.62015 7.39588 3.62015 5.70422C3.62282 5.00359 3.81658 4.31548 4.18268 3.70646C4.54878 3.09743 5.07483 2.58811 5.70993 2.22776C6.34504 1.86741 7.06769 1.66824 7.80799 1.64952C8.54828 1.6308 9.28115 1.79315 9.9357 2.12088C9.97075 1.83439 10.0478 1.55391 10.1647 1.28755C9.37383 0.926168 8.49873 0.761176 7.62184 0.80811C6.74495 0.855043 5.8951 1.11236 5.15235 1.55582C4.40959 1.99929 3.79836 2.61431 3.37621 3.34297C2.95406 4.07163 2.73488 4.88995 2.73932 5.72088C2.73932 7.66672 3.89321 9.29588 4.73881 10.4834L4.89295 10.7C5.73427 11.8536 6.6368 12.9662 7.5971 14.0334L7.93181 14.4042L8.26653 14.0334C9.2267 12.9661 10.1292 11.8536 10.9707 10.7L11.1248 10.4792C11.966 9.29171 13.1199 7.66672 13.1199 5.72088C13.1155 5.68755 13.1111 5.65422 13.1111 5.62088Z" fill="#DBBAB5"/>
<path d="M13.2123 4.58342C14.4285 4.58342 15.4144 3.65067 15.4144 2.50008C15.4144 1.34949 14.4285 0.416748 13.2123 0.416748C11.9962 0.416748 11.0103 1.34949 11.0103 2.50008C11.0103 3.65067 11.9962 4.58342 13.2123 4.58342Z" fill="#DBBAB5"/>
</g>
<defs>
<clipPath id="clip0">
<rect width="15.8549" height="15" fill="white"/>
</clipPath>
</defs>
</svg>
