<svg width="17" height="15" viewBox="0 0 17 15" fill="none" xmlns="http://www.w3.org/2000/svg">
<path d="M7.65861 4.0492L5.20371 1.65813C4.92071 1.38259 4.40186 1.38382 4.07314 1.66181L2.05436 3.36831C1.45352 3.87592 1.28154 4.62967 1.62913 5.23402C3.70568 8.86194 7.17318 11.7919 11.4698 13.5492C12.1853 13.8425 13.0778 13.6974 13.6787 13.1898L15.7163 11.4673C16.0465 11.1887 16.0472 10.7485 15.7178 10.5097L12.8732 8.44926C12.5757 8.23373 12.1134 8.26189 11.8152 8.51417L10.8254 9.35058C10.7747 9.39539 10.708 9.42493 10.6355 9.43467C10.563 9.4444 10.4887 9.43379 10.4241 9.40446C8.80619 8.61832 7.46413 7.4844 6.53457 6.1182C6.49975 6.06355 6.48715 6.00077 6.49868 5.9395C6.51022 5.87822 6.54526 5.82183 6.59842 5.77898L7.58532 4.94562C7.88429 4.69213 7.91694 4.30025 7.65861 4.04859V4.0492Z" stroke="#DBBAB5" stroke-width="2" stroke-linecap="round" stroke-linejoin="round"/>
</svg>
