<svg width="18" height="16" viewBox="0 0 18 16" fill="none" xmlns="http://www.w3.org/2000/svg">
<path fill-rule="evenodd" clip-rule="evenodd" d="M14.8782 3.00892C14.0749 2.32986 13.1191 1.79142 12.0663 1.4248C11.0134 1.05817 9.88436 0.870637 8.74457 0.87307C3.96515 0.87307 0.0743767 4.13971 0.0724449 8.15506C0.0724449 9.43836 0.471374 10.6908 1.22963 11.7957L0 15.5685L4.59686 14.5553C5.86841 15.1366 7.29297 15.4414 8.74071 15.4419H8.74457C13.523 15.4419 17.4138 12.1753 17.4157 8.15993C17.419 7.20313 17.1965 6.25527 16.7609 5.37113C16.3254 4.487 15.6855 3.68412 14.8782 3.00892ZM8.74457 14.213H8.74167C7.45072 14.2131 6.18353 13.9214 5.07307 13.3685L4.81034 13.2371L2.08255 13.8382L2.80989 11.605L2.63892 11.3763C1.91717 10.4113 1.53509 9.2946 1.5368 8.15506C1.53873 4.81785 4.7717 2.10282 8.74747 2.10282C9.69432 2.10106 10.6322 2.25702 11.5068 2.56167C12.3814 2.86633 13.1754 3.31363 13.8428 3.87769C14.5137 4.43907 15.0455 5.10655 15.4075 5.84157C15.7694 6.57658 15.9543 7.36455 15.9514 8.15993C15.9494 11.4971 12.7165 14.213 8.74457 14.213ZM12.6981 9.67928C12.4808 9.58761 11.4163 9.14795 11.2174 9.08711C11.0193 9.02627 10.8754 8.99626 10.7305 9.17797C10.5856 9.35967 10.1703 9.76932 10.0437 9.891C9.91721 10.0127 9.79067 10.0273 9.57431 9.93642C9.35794 9.84557 8.65957 9.65332 7.83177 9.03358C7.18749 8.55092 6.75282 7.95551 6.62628 7.77299C6.49975 7.59048 6.61276 7.49233 6.72191 7.40147C6.81947 7.32036 6.93828 7.18894 7.04646 7.08268C7.15465 6.97641 7.19039 6.90097 7.26283 6.7793C7.33528 6.65762 7.29954 6.55135 7.24448 6.4605C7.19039 6.36884 6.75669 5.47329 6.57606 5.10907C6.40122 4.7562 6.22253 4.80325 6.08923 4.79839C5.95117 4.79364 5.81301 4.79148 5.67484 4.7919C5.56497 4.79425 5.45687 4.81564 5.3573 4.85472C5.25774 4.89381 5.16886 4.94974 5.09625 5.01903C4.89727 5.20154 4.338 5.64121 4.338 6.53675C4.338 7.4323 5.1146 8.29783 5.22279 8.41951C5.33097 8.54119 6.75089 10.3785 8.92423 11.167C9.44197 11.3544 9.84573 11.4663 10.1597 11.5507C10.6784 11.6894 11.1507 11.6691 11.5245 11.6229C11.9408 11.571 12.8063 11.1832 12.9869 10.7582C13.1676 10.3331 13.1676 9.96887 13.1135 9.89262C13.0594 9.81637 12.9135 9.77013 12.6981 9.67928Z" fill="#DBBAB5"/>
</svg>
