<svg width="25" height="25" viewBox="0 0 25 25" fill="none" xmlns="http://www.w3.org/2000/svg">
<path fill-rule="evenodd" clip-rule="evenodd" d="M21.3574 3.55978C20.2043 2.42803 18.8323 1.53063 17.3209 0.919581C15.8095 0.308534 14.1888 -0.00401567 12.5527 3.89491e-05C5.69189 3.89491e-05 0.106766 5.44443 0.103993 12.1367C0.103993 14.2755 0.676648 16.363 1.76511 18.2043L0 24.4924L6.59871 22.8038C8.42399 23.7726 10.4689 24.2806 12.5471 24.2815H12.5527C19.4121 24.2815 24.9972 18.8371 25 12.1448C25.0047 10.5501 24.6852 8.97036 24.06 7.49681C23.4347 6.02325 22.5162 4.68513 21.3574 3.55978ZM12.5527 22.2332H12.5485C10.6954 22.2334 8.87634 21.7473 7.28229 20.8258L6.90514 20.6068L2.98946 21.6086L4.03355 17.8866L3.78812 17.5054C2.75206 15.8971 2.20359 14.0359 2.20604 12.1367C2.20881 6.57468 6.84968 2.04963 12.5568 2.04963C13.916 2.04668 15.2623 2.30661 16.5178 2.81437C17.7733 3.32213 18.913 4.06764 19.871 5.00774C20.8342 5.94337 21.5976 7.05584 22.1171 8.28087C22.6366 9.50589 22.902 10.8192 22.8979 12.1448C22.8951 17.7068 18.2543 22.2332 12.5527 22.2332ZM18.2279 14.677C17.9159 14.5243 16.3879 13.7915 16.1023 13.6901C15.818 13.5887 15.6114 13.5387 15.4035 13.8415C15.1955 14.1444 14.5992 14.8271 14.4176 15.0299C14.236 15.2327 14.0543 15.257 13.7437 15.1056C13.4331 14.9542 12.4306 14.6338 11.2424 13.6009C10.3175 12.7965 9.69355 11.8041 9.5119 11.4999C9.33026 11.1957 9.49249 11.0321 9.64918 10.8807C9.78922 10.7455 9.95977 10.5265 10.1151 10.3494C10.2704 10.1723 10.3217 10.0465 10.4257 9.84375C10.5297 9.64095 10.4783 9.46384 10.3993 9.31242C10.3217 9.15965 9.69909 7.66707 9.4398 7.06004C9.18883 6.47193 8.93232 6.55034 8.74097 6.54223C8.5428 6.53433 8.34447 6.53072 8.14613 6.53142C7.98841 6.53533 7.83323 6.57098 7.69031 6.63612C7.54738 6.70126 7.41981 6.7945 7.31557 6.90997C7.02994 7.21416 6.22711 7.94693 6.22711 9.43951C6.22711 10.9321 7.34191 12.3746 7.49721 12.5774C7.65251 12.7802 9.69077 15.8424 12.8106 17.1566C13.5538 17.4689 14.1334 17.6554 14.584 17.796C15.3286 18.0272 16.0066 17.9934 16.5432 17.9164C17.1408 17.8298 18.3832 17.1836 18.6425 16.4752C18.9018 15.7667 18.9018 15.1597 18.8241 15.0326C18.7465 14.9055 18.5371 14.8285 18.2279 14.677Z" fill="white"/>
</svg>
