<svg width="324" height="112" viewBox="0 0 324 112" fill="none" xmlns="http://www.w3.org/2000/svg">
<path d="M41.9702 26.8705C39.768 27.3985 37.716 28.149 37.3559 28.4207C37.0672 28.7646 35.9568 29.2665 34.9589 29.5996C31.6389 30.5512 21.418 38.7253 19.592 41.8247C17.8298 44.918 14.3334 56.0801 14.5292 58.1158C14.8079 61.0127 14.2304 61.7004 12.0579 61.1983C6.45583 59.8408 -3.19651 63.219 -6.18513 67.6156C-12.8449 77.3436 -25.2784 87.9432 -32.9014 90.336C-34.8971 91.0021 -40.12 90.2403 -41.5086 89.1886C-42.627 88.2689 -43.2191 90.1434 -42.1344 91.3823C-40.5278 93.3613 -36.4153 94.6251 -32.8512 94.2031C-30.2362 93.9516 -27.8954 92.8571 -23.6006 89.9943C-14.1632 83.713 -5.7352 76.9757 -1.63972 72.7097C0.164196 70.7187 1.69843 69.9389 4.53838 69.3496C6.93941 68.8815 8.48519 68.8908 8.79304 69.4144C9.09335 69.8596 9.83259 70.1836 10.4066 70.1283C12.774 69.9796 13.9903 71.9171 15.2568 77.7217C16.6474 84.1466 20.4998 92.073 23.6938 95.1636C27.6571 98.8913 34.1893 99.2111 36.4879 95.6711C37.2829 94.5674 37.8338 92.934 37.7584 92.151C37.6756 91.2898 38.0166 90.1507 38.4741 89.5536C38.9316 88.9564 39.2575 87.6607 39.1671 86.7212C38.896 83.9026 36.504 78.4433 34.8 76.7897C33.9443 75.9238 32.4241 74.1736 31.4032 72.9285C30.3822 71.6834 26.7006 68.8768 23.2781 66.7565C19.7918 64.6423 16.9021 62.7077 16.8645 62.3162C16.7289 60.9069 18.7216 52.181 19.6176 50.1194C20.2137 48.9557 20.5959 47.5756 20.5582 47.1841C20.4076 45.6182 24.4317 41.2801 29.3604 37.6451C37.7697 31.3837 51.2564 27.7155 60.7078 28.9398C62.6664 29.2255 65.1428 29.5403 66.1859 29.6771C67.2927 29.8076 70.3732 30.3805 73.0786 31.0684C78.1478 32.2401 78.9995 32.3953 79.7875 32.5565C80.0501 32.6103 81.9263 33.378 84.0014 34.2056C86.0203 35.1176 87.6826 35.6689 87.66 35.434C87.6449 35.2774 89.8476 36.0928 92.5981 37.2505C95.3562 38.4865 98.5532 39.6013 99.7952 39.7979C100.973 40.0006 102.373 40.4981 102.857 40.8466C103.285 41.2796 103.683 41.3994 103.653 41.0862C103.63 40.8513 105.641 41.6851 108.216 43.0178C113.983 46.0978 120.28 48.6528 129.124 51.5948C132.982 52.8831 138.588 54.9514 141.672 56.2351C144.685 57.4466 147.301 58.5383 147.492 58.5199C147.684 58.5015 149.361 59.2093 151.188 60.1397C154.502 61.7965 159.545 63.3658 180.412 69.4973C186.044 71.168 195.184 73.8445 200.625 75.5336C219.469 81.3855 226.839 83.0471 234.526 83.3347C237.562 83.4378 243.051 83.6209 246.795 83.7348C252.547 83.9716 256.55 83.4284 261.434 82.0103C261.929 81.8046 264.642 81.2275 267.418 80.6444C270.194 80.0612 273.345 79.3629 274.351 79.1081C283.264 76.7492 304.036 68.5083 308.627 65.3799C310.378 64.1841 312.472 63.1925 313.301 63.1127C314.704 62.9777 321.77 56.1344 321.136 55.5632C320.993 55.4189 319.282 56.3737 317.283 57.6723C315.348 58.9648 311.848 60.7239 309.612 61.5711C307.312 62.4245 305.013 63.2779 304.525 63.5619C304.045 63.9242 300.868 65.0201 297.506 66.2127C294.138 67.327 288.286 69.3914 284.5 70.8618C273.633 74.9892 267.154 76.5608 255.227 77.7082C246.808 78.5182 242.76 78.5916 238.835 77.9419C235.954 77.429 230.787 76.5827 227.38 75.9623C223.981 75.4201 216.859 73.6556 211.561 72.1109C206.262 70.5661 198.578 68.3027 194.409 67.1233C190.296 65.8596 186.24 64.5114 185.422 64.037C183.842 63.0037 178.409 61.3929 164.477 57.755C152.725 54.6976 140.244 50.762 137.257 49.1529C135.97 48.4866 132.225 47.0294 128.908 46.0052C125.655 44.9749 121.336 43.5729 119.347 42.9741C117.359 42.3752 115.411 41.5353 114.991 41.1806C114.578 40.9043 112.766 40.1304 110.904 39.5193C109.107 38.902 107.295 38.1281 106.882 37.8518C106.533 37.5693 103.662 36.5021 100.536 35.4595C97.4183 34.4952 92.0261 32.6434 88.5665 31.4748C85.0993 30.228 81.392 29.1623 80.2852 29.0317C79.2421 28.895 76.8707 28.333 75.0246 27.8784C63.9179 24.838 51.7204 24.5101 41.9702 26.8705ZM21.4575 74.5965C21.8854 75.0295 23.957 76.4896 26.0286 77.9497C30.7834 81.2062 33.7825 84.9477 34.6544 88.6567C35.4398 92.1371 34.2511 93.8318 30.6869 94.2537C28.7735 94.4378 27.6928 93.9096 25.1482 91.5468C21.2561 87.8912 19.1198 83.7507 17.9356 77.464L17.0146 72.5744L18.8195 73.2699C19.8138 73.5694 20.9659 74.1697 21.4575 74.5965Z" fill="#CD2637"/>
</svg>
